<svg width="74" height="71" viewBox="0 0 74 71" fill="none" xmlns="http://www.w3.org/2000/svg">
<mask id="path-1-outside-1_265_12" maskUnits="userSpaceOnUse" x="0" y="57" width="67" height="14" fill="black">
<rect fill="white" y="57" width="67" height="14"/>
<path d="M2.208 61.984C2.208 62.2507 2.256 62.4747 2.352 62.656C2.45867 62.8267 2.61867 62.9813 2.832 63.12C3.056 63.2587 3.33333 63.392 3.664 63.52C4.00533 63.6373 4.41067 63.776 4.88 63.936C5.27467 64.064 5.664 64.2133 6.048 64.384C6.432 64.544 6.77333 64.7467 7.072 64.992C7.38133 65.2267 7.62667 65.5253 7.808 65.888C7.98933 66.24 8.08 66.672 8.08 67.184C8.08 67.728 7.97333 68.192 7.76 68.576C7.54667 68.96 7.264 69.2747 6.912 69.52C6.56 69.7547 6.15467 69.9253 5.696 70.032C5.23733 70.1387 4.76267 70.192 4.272 70.192C3.57867 70.192 2.93333 70.1067 2.336 69.936C1.73867 69.7653 1.22133 69.5573 0.784 69.312L1.12 68.144C1.32267 68.2827 1.52533 68.416 1.728 68.544C1.93067 68.6613 2.14933 68.7627 2.384 68.848C2.62933 68.9333 2.896 69.0027 3.184 69.056C3.472 69.1093 3.80267 69.136 4.176 69.136C4.656 69.136 5.06667 69.0933 5.408 69.008C5.74933 68.9227 6.02667 68.8053 6.24 68.656C6.45333 68.496 6.608 68.3093 6.704 68.096C6.8 67.8827 6.848 67.6533 6.848 67.408C6.848 67.0453 6.76267 66.7413 6.592 66.496C6.42133 66.24 6.19733 66.0213 5.92 65.84C5.65333 65.6587 5.35467 65.5093 5.024 65.392C4.704 65.264 4.384 65.1467 4.064 65.04C3.60533 64.8907 3.18933 64.7307 2.816 64.56C2.44267 64.3893 2.12267 64.1867 1.856 63.952C1.6 63.7173 1.39733 63.4453 1.248 63.136C1.10933 62.8267 1.04 62.4587 1.04 62.032C1.04 61.552 1.12533 61.1467 1.296 60.816C1.47733 60.4747 1.71733 60.1973 2.016 59.984C2.32533 59.7707 2.688 59.616 3.104 59.52C3.52 59.4133 3.968 59.36 4.448 59.36C5.024 59.36 5.57867 59.4187 6.112 59.536C6.64533 59.6533 7.09867 59.7973 7.472 59.968L7.136 61.2C6.96533 61.0507 6.76267 60.928 6.528 60.832C6.304 60.7253 6.064 60.6453 5.808 60.592C5.56267 60.528 5.31733 60.4853 5.072 60.464C4.82667 60.432 4.59733 60.416 4.384 60.416C3.712 60.416 3.17867 60.544 2.784 60.8C2.4 61.0453 2.208 61.44 2.208 61.984ZM12.9904 65.232L16.1264 70H14.8464L12.2064 66L11.1024 67.104V70H9.98238V58.16H11.1024V65.744L14.3344 62.64H15.6144L12.9904 65.232ZM18.6805 70H17.5605V62.64H18.6805V70ZM17.3205 59.952C17.3205 59.7387 17.3952 59.5467 17.5445 59.376C17.7045 59.2053 17.8965 59.12 18.1205 59.12C18.3338 59.12 18.5258 59.2053 18.6965 59.376C18.8672 59.5467 18.9525 59.7387 18.9525 59.952C18.9525 60.176 18.8672 60.368 18.6965 60.528C18.5258 60.6773 18.3338 60.752 18.1205 60.752C17.8965 60.752 17.7045 60.6773 17.5445 60.528C17.3952 60.368 17.3205 60.176 17.3205 59.952ZM22.3859 70H21.2659V58.16H22.3859V70ZM26.1984 70H25.0784V58.16H26.1984V70ZM33.4669 70L33.3389 68.688H33.2749C33.1469 68.8907 32.9762 69.0827 32.7629 69.264C32.5495 69.4453 32.3095 69.6053 32.0429 69.744C31.7869 69.8827 31.5042 69.9893 31.1949 70.064C30.8962 70.1493 30.5975 70.192 30.2989 70.192C29.5949 70.192 29.0669 69.9893 28.7149 69.584C28.3629 69.168 28.1869 68.6507 28.1869 68.032C28.1869 67.424 28.3415 66.9387 28.6509 66.576C28.9602 66.2133 29.3389 65.9413 29.7869 65.76C30.2349 65.5787 30.7042 65.4613 31.1949 65.408C31.6962 65.3547 32.1335 65.328 32.5069 65.328H33.2269V65.136C33.2269 64.7307 33.1682 64.4213 33.0509 64.208C32.9442 63.9947 32.7842 63.8133 32.5709 63.664C32.3895 63.5467 32.1922 63.4667 31.9789 63.424C31.7762 63.3707 31.5042 63.344 31.1629 63.344C30.7149 63.344 30.3202 63.4027 29.9789 63.52C29.6375 63.6373 29.3069 63.792 28.9869 63.984L28.7309 63.024C29.4455 62.608 30.2989 62.4 31.2909 62.4C31.6855 62.4 32.0589 62.4373 32.4109 62.512C32.7629 62.576 33.0722 62.6933 33.3389 62.864C33.6482 63.056 33.8935 63.328 34.0749 63.68C34.2562 64.032 34.3469 64.4693 34.3469 64.992V70H33.4669ZM30.6349 69.248C31.0722 69.248 31.5362 69.1093 32.0269 68.832C32.5175 68.5547 32.9175 68.1547 33.2269 67.632V66.144H33.0829C32.6455 66.144 32.2082 66.16 31.7709 66.192C31.3335 66.224 30.9335 66.304 30.5709 66.432C30.2189 66.56 29.9309 66.7467 29.7069 66.992C29.4829 67.2267 29.3709 67.552 29.3709 67.968C29.3709 68.384 29.4829 68.704 29.7069 68.928C29.9415 69.1413 30.2509 69.248 30.6349 69.248ZM38.9236 63.296C38.4116 63.296 38.0383 63.392 37.8036 63.584C37.5796 63.7653 37.4676 64.016 37.4676 64.336C37.4676 64.4427 37.4836 64.5547 37.5156 64.672C37.5476 64.7893 37.6063 64.9013 37.6916 65.008C37.7876 65.104 37.9103 65.2 38.0596 65.296C38.2196 65.3813 38.4276 65.4507 38.6836 65.504L39.8196 65.76C40.2676 65.856 40.625 65.9893 40.8916 66.16C41.169 66.32 41.3823 66.496 41.5316 66.688C41.681 66.88 41.777 67.0773 41.8196 67.28C41.873 67.472 41.8996 67.6533 41.8996 67.824C41.8996 68.1547 41.8303 68.464 41.6916 68.752C41.5636 69.04 41.3716 69.2907 41.1156 69.504C40.8703 69.7173 40.5663 69.8827 40.2036 70C39.841 70.128 39.4356 70.192 38.9876 70.192C38.4223 70.192 37.8996 70.112 37.4196 69.952C36.9396 69.7813 36.5556 69.5947 36.2676 69.392L36.5556 68.352C36.9396 68.704 37.3663 68.96 37.8356 69.12C38.305 69.28 38.7263 69.36 39.0996 69.36C39.633 69.36 40.0383 69.232 40.3156 68.976C40.593 68.7093 40.7316 68.432 40.7316 68.144C40.7316 68.048 40.7263 67.9413 40.7156 67.824C40.705 67.696 40.6623 67.568 40.5876 67.44C40.513 67.312 40.401 67.1947 40.2516 67.088C40.1023 66.9707 39.889 66.88 39.6116 66.816L38.0756 66.432C37.7236 66.3467 37.4356 66.2347 37.2116 66.096C36.9876 65.9573 36.8116 65.808 36.6836 65.648C36.5556 65.4773 36.465 65.3013 36.4116 65.12C36.3583 64.928 36.3316 64.736 36.3316 64.544C36.3316 63.8933 36.5716 63.376 37.0516 62.992C37.5423 62.5973 38.193 62.4 39.0036 62.4C39.4196 62.4 39.8676 62.4587 40.3476 62.576C40.8276 62.6827 41.233 62.8427 41.5636 63.056L41.2596 64.016C41.0463 63.8347 40.7263 63.6693 40.2996 63.52C39.8836 63.3707 39.425 63.296 38.9236 63.296ZM48.5499 64.96H45.2059V70H44.0059V59.44H49.7179V60.56H45.2059V63.84H48.5499V64.96ZM51.8661 62.64V67.504C51.8661 67.8347 51.9035 68.112 51.9781 68.336C52.0635 68.56 52.1701 68.7413 52.2981 68.88C52.4368 69.008 52.5968 69.104 52.7781 69.168C52.9701 69.2213 53.1781 69.248 53.4021 69.248C53.6688 69.248 53.9301 69.2107 54.1861 69.136C54.4528 69.0507 54.6981 68.928 54.9221 68.768C55.1461 68.608 55.3435 68.4107 55.5141 68.176C55.6848 67.9413 55.8181 67.6693 55.9141 67.36V62.64H57.0341V70H56.1541L56.0261 68.624H55.9621C55.8235 69.072 55.5141 69.4453 55.0341 69.744C54.5541 70.0427 53.9568 70.192 53.2421 70.192C52.9008 70.192 52.5755 70.1493 52.2661 70.064C51.9675 69.9787 51.7061 69.84 51.4821 69.648C51.2581 69.4453 51.0768 69.184 50.9381 68.864C50.8101 68.5333 50.7461 68.128 50.7461 67.648V62.64H51.8661ZM64.6973 70V65.136C64.6973 64.496 64.5533 64.0373 64.2653 63.76C63.9773 63.4827 63.6093 63.344 63.1613 63.344C62.8946 63.344 62.6279 63.3867 62.3613 63.472C62.1053 63.5573 61.8653 63.6853 61.6413 63.856C61.4173 64.016 61.2199 64.2187 61.0493 64.464C60.8786 64.6987 60.7453 64.9707 60.6493 65.28V70H59.5293V62.64H60.4093L60.5373 64.016H60.6013C60.7399 63.568 61.0493 63.1893 61.5293 62.88C62.0093 62.56 62.6066 62.4 63.3213 62.4C63.6626 62.4 63.9826 62.448 64.2813 62.544C64.5906 62.6293 64.8573 62.7733 65.0813 62.976C65.3053 63.1787 65.4813 63.4453 65.6093 63.776C65.7479 64.1067 65.8173 64.512 65.8173 64.992V70H64.6973Z"/>
</mask>
<path d="M2.208 61.984C2.208 62.2507 2.256 62.4747 2.352 62.656C2.45867 62.8267 2.61867 62.9813 2.832 63.12C3.056 63.2587 3.33333 63.392 3.664 63.52C4.00533 63.6373 4.41067 63.776 4.88 63.936C5.27467 64.064 5.664 64.2133 6.048 64.384C6.432 64.544 6.77333 64.7467 7.072 64.992C7.38133 65.2267 7.62667 65.5253 7.808 65.888C7.98933 66.24 8.08 66.672 8.08 67.184C8.08 67.728 7.97333 68.192 7.76 68.576C7.54667 68.96 7.264 69.2747 6.912 69.52C6.56 69.7547 6.15467 69.9253 5.696 70.032C5.23733 70.1387 4.76267 70.192 4.272 70.192C3.57867 70.192 2.93333 70.1067 2.336 69.936C1.73867 69.7653 1.22133 69.5573 0.784 69.312L1.12 68.144C1.32267 68.2827 1.52533 68.416 1.728 68.544C1.93067 68.6613 2.14933 68.7627 2.384 68.848C2.62933 68.9333 2.896 69.0027 3.184 69.056C3.472 69.1093 3.80267 69.136 4.176 69.136C4.656 69.136 5.06667 69.0933 5.408 69.008C5.74933 68.9227 6.02667 68.8053 6.24 68.656C6.45333 68.496 6.608 68.3093 6.704 68.096C6.8 67.8827 6.848 67.6533 6.848 67.408C6.848 67.0453 6.76267 66.7413 6.592 66.496C6.42133 66.24 6.19733 66.0213 5.92 65.84C5.65333 65.6587 5.35467 65.5093 5.024 65.392C4.704 65.264 4.384 65.1467 4.064 65.04C3.60533 64.8907 3.18933 64.7307 2.816 64.56C2.44267 64.3893 2.12267 64.1867 1.856 63.952C1.6 63.7173 1.39733 63.4453 1.248 63.136C1.10933 62.8267 1.04 62.4587 1.04 62.032C1.04 61.552 1.12533 61.1467 1.296 60.816C1.47733 60.4747 1.71733 60.1973 2.016 59.984C2.32533 59.7707 2.688 59.616 3.104 59.52C3.52 59.4133 3.968 59.36 4.448 59.36C5.024 59.36 5.57867 59.4187 6.112 59.536C6.64533 59.6533 7.09867 59.7973 7.472 59.968L7.136 61.2C6.96533 61.0507 6.76267 60.928 6.528 60.832C6.304 60.7253 6.064 60.6453 5.808 60.592C5.56267 60.528 5.31733 60.4853 5.072 60.464C4.82667 60.432 4.59733 60.416 4.384 60.416C3.712 60.416 3.17867 60.544 2.784 60.8C2.4 61.0453 2.208 61.44 2.208 61.984ZM12.9904 65.232L16.1264 70H14.8464L12.2064 66L11.1024 67.104V70H9.98238V58.16H11.1024V65.744L14.3344 62.64H15.6144L12.9904 65.232ZM18.6805 70H17.5605V62.64H18.6805V70ZM17.3205 59.952C17.3205 59.7387 17.3952 59.5467 17.5445 59.376C17.7045 59.2053 17.8965 59.12 18.1205 59.12C18.3338 59.12 18.5258 59.2053 18.6965 59.376C18.8672 59.5467 18.9525 59.7387 18.9525 59.952C18.9525 60.176 18.8672 60.368 18.6965 60.528C18.5258 60.6773 18.3338 60.752 18.1205 60.752C17.8965 60.752 17.7045 60.6773 17.5445 60.528C17.3952 60.368 17.3205 60.176 17.3205 59.952ZM22.3859 70H21.2659V58.16H22.3859V70ZM26.1984 70H25.0784V58.16H26.1984V70ZM33.4669 70L33.3389 68.688H33.2749C33.1469 68.8907 32.9762 69.0827 32.7629 69.264C32.5495 69.4453 32.3095 69.6053 32.0429 69.744C31.7869 69.8827 31.5042 69.9893 31.1949 70.064C30.8962 70.1493 30.5975 70.192 30.2989 70.192C29.5949 70.192 29.0669 69.9893 28.7149 69.584C28.3629 69.168 28.1869 68.6507 28.1869 68.032C28.1869 67.424 28.3415 66.9387 28.6509 66.576C28.9602 66.2133 29.3389 65.9413 29.7869 65.76C30.2349 65.5787 30.7042 65.4613 31.1949 65.408C31.6962 65.3547 32.1335 65.328 32.5069 65.328H33.2269V65.136C33.2269 64.7307 33.1682 64.4213 33.0509 64.208C32.9442 63.9947 32.7842 63.8133 32.5709 63.664C32.3895 63.5467 32.1922 63.4667 31.9789 63.424C31.7762 63.3707 31.5042 63.344 31.1629 63.344C30.7149 63.344 30.3202 63.4027 29.9789 63.52C29.6375 63.6373 29.3069 63.792 28.9869 63.984L28.7309 63.024C29.4455 62.608 30.2989 62.4 31.2909 62.4C31.6855 62.4 32.0589 62.4373 32.4109 62.512C32.7629 62.576 33.0722 62.6933 33.3389 62.864C33.6482 63.056 33.8935 63.328 34.0749 63.68C34.2562 64.032 34.3469 64.4693 34.3469 64.992V70H33.4669ZM30.6349 69.248C31.0722 69.248 31.5362 69.1093 32.0269 68.832C32.5175 68.5547 32.9175 68.1547 33.2269 67.632V66.144H33.0829C32.6455 66.144 32.2082 66.16 31.7709 66.192C31.3335 66.224 30.9335 66.304 30.5709 66.432C30.2189 66.56 29.9309 66.7467 29.7069 66.992C29.4829 67.2267 29.3709 67.552 29.3709 67.968C29.3709 68.384 29.4829 68.704 29.7069 68.928C29.9415 69.1413 30.2509 69.248 30.6349 69.248ZM38.9236 63.296C38.4116 63.296 38.0383 63.392 37.8036 63.584C37.5796 63.7653 37.4676 64.016 37.4676 64.336C37.4676 64.4427 37.4836 64.5547 37.5156 64.672C37.5476 64.7893 37.6063 64.9013 37.6916 65.008C37.7876 65.104 37.9103 65.2 38.0596 65.296C38.2196 65.3813 38.4276 65.4507 38.6836 65.504L39.8196 65.76C40.2676 65.856 40.625 65.9893 40.8916 66.16C41.169 66.32 41.3823 66.496 41.5316 66.688C41.681 66.88 41.777 67.0773 41.8196 67.28C41.873 67.472 41.8996 67.6533 41.8996 67.824C41.8996 68.1547 41.8303 68.464 41.6916 68.752C41.5636 69.04 41.3716 69.2907 41.1156 69.504C40.8703 69.7173 40.5663 69.8827 40.2036 70C39.841 70.128 39.4356 70.192 38.9876 70.192C38.4223 70.192 37.8996 70.112 37.4196 69.952C36.9396 69.7813 36.5556 69.5947 36.2676 69.392L36.5556 68.352C36.9396 68.704 37.3663 68.96 37.8356 69.12C38.305 69.28 38.7263 69.36 39.0996 69.36C39.633 69.36 40.0383 69.232 40.3156 68.976C40.593 68.7093 40.7316 68.432 40.7316 68.144C40.7316 68.048 40.7263 67.9413 40.7156 67.824C40.705 67.696 40.6623 67.568 40.5876 67.44C40.513 67.312 40.401 67.1947 40.2516 67.088C40.1023 66.9707 39.889 66.88 39.6116 66.816L38.0756 66.432C37.7236 66.3467 37.4356 66.2347 37.2116 66.096C36.9876 65.9573 36.8116 65.808 36.6836 65.648C36.5556 65.4773 36.465 65.3013 36.4116 65.12C36.3583 64.928 36.3316 64.736 36.3316 64.544C36.3316 63.8933 36.5716 63.376 37.0516 62.992C37.5423 62.5973 38.193 62.4 39.0036 62.4C39.4196 62.4 39.8676 62.4587 40.3476 62.576C40.8276 62.6827 41.233 62.8427 41.5636 63.056L41.2596 64.016C41.0463 63.8347 40.7263 63.6693 40.2996 63.52C39.8836 63.3707 39.425 63.296 38.9236 63.296ZM48.5499 64.96H45.2059V70H44.0059V59.44H49.7179V60.56H45.2059V63.84H48.5499V64.96ZM51.8661 62.64V67.504C51.8661 67.8347 51.9035 68.112 51.9781 68.336C52.0635 68.56 52.1701 68.7413 52.2981 68.88C52.4368 69.008 52.5968 69.104 52.7781 69.168C52.9701 69.2213 53.1781 69.248 53.4021 69.248C53.6688 69.248 53.9301 69.2107 54.1861 69.136C54.4528 69.0507 54.6981 68.928 54.9221 68.768C55.1461 68.608 55.3435 68.4107 55.5141 68.176C55.6848 67.9413 55.8181 67.6693 55.9141 67.36V62.64H57.0341V70H56.1541L56.0261 68.624H55.9621C55.8235 69.072 55.5141 69.4453 55.0341 69.744C54.5541 70.0427 53.9568 70.192 53.2421 70.192C52.9008 70.192 52.5755 70.1493 52.2661 70.064C51.9675 69.9787 51.7061 69.84 51.4821 69.648C51.2581 69.4453 51.0768 69.184 50.9381 68.864C50.8101 68.5333 50.7461 68.128 50.7461 67.648V62.64H51.8661ZM64.6973 70V65.136C64.6973 64.496 64.5533 64.0373 64.2653 63.76C63.9773 63.4827 63.6093 63.344 63.1613 63.344C62.8946 63.344 62.6279 63.3867 62.3613 63.472C62.1053 63.5573 61.8653 63.6853 61.6413 63.856C61.4173 64.016 61.2199 64.2187 61.0493 64.464C60.8786 64.6987 60.7453 64.9707 60.6493 65.28V70H59.5293V62.64H60.4093L60.5373 64.016H60.6013C60.7399 63.568 61.0493 63.1893 61.5293 62.88C62.0093 62.56 62.6066 62.4 63.3213 62.4C63.6626 62.4 63.9826 62.448 64.2813 62.544C64.5906 62.6293 64.8573 62.7733 65.0813 62.976C65.3053 63.1787 65.4813 63.4453 65.6093 63.776C65.7479 64.1067 65.8173 64.512 65.8173 64.992V70H64.6973Z" fill="black"/>
<path d="M2.352 62.656L2.17524 62.7496L2.1786 62.7559L2.1824 62.762L2.352 62.656ZM2.832 63.12L2.72298 63.2877L2.72673 63.2901L2.832 63.12ZM3.664 63.52L3.59175 63.7066L3.59898 63.7091L3.664 63.52ZM4.88 63.936L4.81546 64.1253L4.8183 64.1262L4.88 63.936ZM6.048 64.384L5.96675 64.5668L5.97108 64.5686L6.048 64.384ZM7.072 64.992L6.94496 65.1467L6.95112 65.1513L7.072 64.992ZM7.808 65.888L7.6291 65.9774L7.63021 65.9796L7.808 65.888ZM6.912 69.52L7.02296 69.6864L7.02636 69.6841L6.912 69.52ZM5.696 70.032L5.6507 69.8372L5.696 70.032ZM2.336 69.936L2.39094 69.7437L2.336 69.936ZM0.784 69.312L0.591795 69.2567L0.548004 69.4089L0.68615 69.4864L0.784 69.312ZM1.12 68.144L1.23294 67.9789L1.00436 67.8225L0.927795 68.0887L1.12 68.144ZM1.728 68.544L1.62112 68.7132L1.62779 68.7171L1.728 68.544ZM2.384 68.848L2.31564 69.036L2.3183 69.0369L2.384 68.848ZM3.184 69.056L3.22042 68.8593H3.22042L3.184 69.056ZM5.408 69.008L5.45651 69.202L5.408 69.008ZM6.24 68.656L6.35475 68.8199L6.36 68.816L6.24 68.656ZM6.704 68.096L6.88638 68.1781L6.704 68.096ZM6.592 66.496L6.42556 66.607L6.42782 66.6102L6.592 66.496ZM5.92 65.84L5.80752 66.0054L5.81055 66.0074L5.92 65.84ZM5.024 65.392L4.94966 65.5778L4.95712 65.5805L5.024 65.392ZM4.064 65.04L4.12725 64.8503L4.12592 64.8498L4.064 65.04ZM2.816 64.56L2.89915 64.3781L2.816 64.56ZM1.856 63.952L1.72083 64.0995L1.72387 64.1021L1.856 63.952ZM1.248 63.136L1.06542 63.2178L1.06789 63.2229L1.248 63.136ZM1.296 60.816L1.11936 60.7222L1.11828 60.7243L1.296 60.816ZM2.016 59.984L1.90244 59.8193L1.89975 59.8213L2.016 59.984ZM3.104 59.52L3.14899 59.7149L3.15368 59.7137L3.104 59.52ZM6.112 59.536L6.15497 59.3407H6.15497L6.112 59.536ZM7.472 59.968L7.66495 60.0206L7.70965 59.8567L7.55515 59.7861L7.472 59.968ZM7.136 61.2L7.0043 61.3505L7.24485 61.561L7.32895 61.2526L7.136 61.2ZM6.528 60.832L6.44188 61.0129L6.45227 61.0171L6.528 60.832ZM5.808 60.592L5.75745 60.7858L5.76721 60.7878L5.808 60.592ZM5.072 60.464L5.04611 60.6625L5.05467 60.6632L5.072 60.464ZM2.784 60.8L2.89168 60.9685L2.89284 60.9678L2.784 60.8ZM2.008 61.984C2.008 62.2738 2.06009 62.5321 2.17524 62.7496L2.52876 62.5624C2.45191 62.4173 2.408 62.2275 2.408 61.984H2.008ZM2.1824 62.762C2.30805 62.963 2.49147 63.1372 2.723 63.2877L2.941 62.9523C2.74586 62.8255 2.60928 62.6903 2.5216 62.55L2.1824 62.762ZM2.72673 63.2901C2.96411 63.437 3.25329 63.5755 3.5918 63.7065L3.7362 63.3335C3.41337 63.2085 3.14789 63.0803 2.93727 62.9499L2.72673 63.2901ZM3.59898 63.7091C3.94052 63.8265 4.34603 63.9653 4.81547 64.1253L4.94453 63.7467C4.47531 63.5867 4.07014 63.4481 3.72902 63.3309L3.59898 63.7091ZM4.8183 64.1262C5.20625 64.2521 5.58907 64.3989 5.96677 64.5668L6.12923 64.2012C5.73894 64.0278 5.34309 63.8759 4.9417 63.7458L4.8183 64.1262ZM5.97108 64.5686C6.3384 64.7217 6.66261 64.9145 6.94505 65.1465L7.19895 64.8375C6.88406 64.5788 6.52561 64.3663 6.12492 64.1994L5.97108 64.5686ZM6.95112 65.1513C7.23493 65.3666 7.46088 65.641 7.62912 65.9774L7.98689 65.7986C7.79246 65.4097 7.52774 65.0867 7.19288 64.8327L6.95112 65.1513ZM7.63021 65.9796C7.7933 66.2962 7.88 66.6948 7.88 67.184H8.28C8.28 66.6492 8.18536 66.1838 7.9858 65.7964L7.63021 65.9796ZM7.88 67.184C7.88 67.702 7.7785 68.1309 7.58517 68.4789L7.93483 68.6731C8.16817 68.2531 8.28 67.754 8.28 67.184H7.88ZM7.58517 68.4789C7.38627 68.8369 7.12404 69.1284 6.79764 69.3559L7.02636 69.6841C7.40396 69.4209 7.70707 69.0831 7.93483 68.6731L7.58517 68.4789ZM6.80106 69.3536C6.47119 69.5735 6.08859 69.7354 5.6507 69.8372L5.7413 70.2268C6.22074 70.1153 6.64881 69.9358 7.02294 69.6864L6.80106 69.3536ZM5.6507 69.8372C5.20749 69.9403 4.74806 69.992 4.272 69.992V70.392C4.77728 70.392 5.26717 70.3371 5.7413 70.2268L5.6507 69.8372ZM4.272 69.992C3.59513 69.992 2.96848 69.9087 2.39094 69.7437L2.28106 70.1283C2.89819 70.3046 3.56221 70.392 4.272 70.392V69.992ZM2.39094 69.7437C1.80516 69.5763 1.30286 69.3737 0.88185 69.1376L0.68615 69.4864C1.13981 69.7409 1.67217 69.9543 2.28106 70.1283L2.39094 69.7437ZM0.976205 69.3673L1.31221 68.1993L0.927795 68.0887L0.591795 69.2567L0.976205 69.3673ZM1.00706 68.3091C1.2117 68.4491 1.41641 68.5838 1.6212 68.7131L1.8348 68.3749C1.63425 68.2482 1.43363 68.1163 1.23294 67.9789L1.00706 68.3091ZM1.62779 68.7171C1.84127 68.8407 2.07067 68.9469 2.31565 69.036L2.45235 68.66C2.22799 68.5785 2.02007 68.482 1.82821 68.3709L1.62779 68.7171ZM2.3183 69.0369C2.5743 69.1259 2.85087 69.1977 3.14758 69.2527L3.22042 68.8593C2.94113 68.8076 2.68437 68.7407 2.4497 68.6591L2.3183 69.0369ZM3.14758 69.2527C3.45034 69.3087 3.7936 69.336 4.176 69.336V68.936C3.81174 68.936 3.49366 68.9099 3.22042 68.8593L3.14758 69.2527ZM4.176 69.336C4.66686 69.336 5.09475 69.2925 5.45651 69.202L5.35949 68.814C5.03859 68.8942 4.64514 68.936 4.176 68.936V69.336ZM5.45651 69.202C5.81376 69.1127 6.11565 68.9872 6.35469 68.8198L6.12531 68.4922C5.93768 68.6235 5.68491 68.7326 5.35949 68.814L5.45651 69.202ZM6.36 68.816C6.59655 68.6386 6.77467 68.4263 6.88638 68.1781L6.52162 68.0139C6.44133 68.1923 6.31012 68.3534 6.12 68.496L6.36 68.816ZM6.88638 68.1781C6.99456 67.9377 7.048 67.6802 7.048 67.408H6.648C6.648 67.6264 6.60544 67.8277 6.52162 68.0139L6.88638 68.1781ZM7.048 67.408C7.048 67.0134 6.95476 66.6672 6.75618 66.3818L6.42782 66.6102C6.57057 66.8154 6.648 67.0773 6.648 67.408H7.048ZM6.75841 66.3851C6.57164 66.1049 6.32763 65.8676 6.02945 65.6726L5.81055 66.0074C6.06704 66.1751 6.27103 66.3751 6.42559 66.6069L6.75841 66.3851ZM6.03246 65.6746C5.75047 65.4829 5.43626 65.3261 5.09088 65.2035L4.95712 65.5805C5.27307 65.6926 5.5562 65.8345 5.80754 66.0054L6.03246 65.6746ZM5.09828 65.2063C4.77472 65.0769 4.45104 64.9582 4.12725 64.8503L4.00075 65.2297C4.31696 65.3351 4.63328 65.4511 4.94972 65.5777L5.09828 65.2063ZM4.12592 64.8498C3.67327 64.7025 3.2645 64.5451 2.89915 64.3781L2.73285 64.7419C3.11417 64.9162 3.5374 65.0789 4.00208 65.2302L4.12592 64.8498ZM2.89915 64.3781C2.5409 64.2143 2.23803 64.0218 1.98813 63.8019L1.72387 64.1021C2.0073 64.3516 2.34443 64.5643 2.73285 64.7419L2.89915 64.3781ZM1.99114 63.8046C1.75362 63.5868 1.5663 63.3353 1.42811 63.049L1.06789 63.2229C1.22837 63.5554 1.44638 63.8478 1.72086 64.0994L1.99114 63.8046ZM1.4305 63.0542C1.30595 62.7763 1.24 62.4375 1.24 62.032H0.84C0.84 62.4798 0.912722 62.877 1.0655 63.2178L1.4305 63.0542ZM1.24 62.032C1.24 61.5749 1.32132 61.203 1.47372 60.9077L1.11828 60.7243C0.929348 61.0903 0.84 61.5291 0.84 62.032H1.24ZM1.47262 60.9098C1.64023 60.5943 1.86011 60.3411 2.13225 60.1467L1.89975 59.8213C1.57456 60.0535 1.31444 60.355 1.11938 60.7222L1.47262 60.9098ZM2.12955 60.1486C2.4155 59.9514 2.75421 59.806 3.14897 59.7149L3.05903 59.3251C2.62179 59.426 2.23517 59.5899 1.90245 59.8194L2.12955 60.1486ZM3.15368 59.7137C3.55167 59.6117 3.98282 59.56 4.448 59.56V59.16C3.95318 59.16 3.48833 59.215 3.05433 59.3263L3.15368 59.7137ZM4.448 59.56C5.01034 59.56 5.55056 59.6173 6.06903 59.7313L6.15497 59.3407C5.60678 59.2201 5.03766 59.16 4.448 59.16V59.56ZM6.06903 59.7313C6.59276 59.8466 7.03182 59.9867 7.38885 60.1499L7.55515 59.7861C7.16552 59.608 6.6979 59.4601 6.15497 59.3407L6.06903 59.7313ZM7.27905 59.9154L6.94305 61.1474L7.32895 61.2526L7.66495 60.0206L7.27905 59.9154ZM7.2677 61.0495C7.07858 60.884 6.85644 60.7503 6.60373 60.6469L6.45227 61.0171C6.66889 61.1057 6.85209 61.2173 7.0043 61.3505L7.2677 61.0495ZM6.61399 60.6514C6.37483 60.5375 6.11957 60.4526 5.84879 60.3962L5.76721 60.7878C6.00843 60.8381 6.23317 60.9131 6.44201 61.0126L6.61399 60.6514ZM5.85848 60.3985C5.6026 60.3317 5.34618 60.2871 5.08933 60.2648L5.05467 60.6632C5.28849 60.6836 5.52273 60.7243 5.75752 60.7855L5.85848 60.3985ZM5.09787 60.2657C4.84528 60.2327 4.60722 60.216 4.384 60.216V60.616C4.58745 60.616 4.80806 60.6313 5.04613 60.6623L5.09787 60.2657ZM4.384 60.216C3.68915 60.216 3.11333 60.348 2.67516 60.6322L2.89284 60.9678C3.244 60.74 3.73485 60.616 4.384 60.616V60.216ZM2.67632 60.6315C2.22297 60.9211 2.008 61.3871 2.008 61.984H2.408C2.408 61.4929 2.57703 61.1696 2.89168 60.9685L2.67632 60.6315ZM12.9904 65.232L12.8498 65.0897L12.7332 65.2049L12.8233 65.3419L12.9904 65.232ZM16.1264 70V70.2H16.4973L16.2935 69.8901L16.1264 70ZM14.8464 70L14.6795 70.1102L14.7387 70.2H14.8464V70ZM12.2064 66L12.3733 65.8898L12.2383 65.6853L12.065 65.8586L12.2064 66ZM11.1024 67.104L10.961 66.9626L10.9024 67.0212V67.104H11.1024ZM11.1024 70V70.2H11.3024V70H11.1024ZM9.98238 70H9.78238V70.2H9.98238V70ZM9.98238 58.16V57.96H9.78238V58.16H9.98238ZM11.1024 58.16H11.3024V57.96H11.1024V58.16ZM11.1024 65.744H10.9024V66.2134L11.2409 65.8882L11.1024 65.744ZM14.3344 62.64V62.44H14.2539L14.1958 62.4958L14.3344 62.64ZM15.6144 62.64L15.7549 62.7823L16.1014 62.44H15.6144V62.64ZM12.8233 65.3419L15.9593 70.1099L16.2935 69.8901L13.1575 65.1221L12.8233 65.3419ZM16.1264 69.8H14.8464V70.2H16.1264V69.8ZM15.0133 69.8898L12.3733 65.8898L12.0395 66.1102L14.6795 70.1102L15.0133 69.8898ZM12.065 65.8586L10.961 66.9626L11.2438 67.2454L12.3478 66.1414L12.065 65.8586ZM10.9024 67.104V70H11.3024V67.104H10.9024ZM11.1024 69.8H9.98238V70.2H11.1024V69.8ZM10.1824 70V58.16H9.78238V70H10.1824ZM9.98238 58.36H11.1024V57.96H9.98238V58.36ZM10.9024 58.16V65.744H11.3024V58.16H10.9024ZM11.2409 65.8882L14.4729 62.7842L14.1958 62.4958L10.9638 65.5998L11.2409 65.8882ZM14.3344 62.84H15.6144V62.44H14.3344V62.84ZM15.4738 62.4977L12.8498 65.0897L13.1309 65.3743L15.7549 62.7823L15.4738 62.4977ZM18.6805 70V70.2H18.8805V70H18.6805ZM17.5605 70H17.3605V70.2H17.5605V70ZM17.5605 62.64V62.44H17.3605V62.64H17.5605ZM18.6805 62.64H18.8805V62.44H18.6805V62.64ZM17.5445 59.376L17.3985 59.2391L17.394 59.2443L17.5445 59.376ZM18.6965 59.376L18.8379 59.2346V59.2346L18.6965 59.376ZM18.6965 60.528L18.8283 60.6786L18.8333 60.6739L18.6965 60.528ZM17.5445 60.528L17.3979 60.6648L17.408 60.6742L17.5445 60.528ZM18.6805 69.8H17.5605V70.2H18.6805V69.8ZM17.7605 70V62.64H17.3605V70H17.7605ZM17.5605 62.84H18.6805V62.44H17.5605V62.84ZM18.4805 62.64V70H18.8805V62.64H18.4805ZM17.5205 59.952C17.5205 59.7903 17.5754 59.6444 17.695 59.5077L17.394 59.2443C17.2149 59.4489 17.1205 59.687 17.1205 59.952H17.5205ZM17.6904 59.5128C17.8145 59.3804 17.9545 59.32 18.1205 59.32V58.92C17.8385 58.92 17.5945 59.0302 17.3986 59.2392L17.6904 59.5128ZM18.1205 59.32C18.2737 59.32 18.4165 59.3789 18.5551 59.5174L18.8379 59.2346C18.6351 59.0318 18.394 58.92 18.1205 58.92V59.32ZM18.5551 59.5174C18.6936 59.656 18.7525 59.7988 18.7525 59.952H19.1525C19.1525 59.6785 19.0407 59.4374 18.8379 59.2346L18.5551 59.5174ZM18.7525 59.952C18.7525 60.118 18.6921 60.258 18.5597 60.3821L18.8333 60.6739C19.0423 60.478 19.1525 60.234 19.1525 59.952H18.7525ZM18.5648 60.3775C18.4281 60.4971 18.2822 60.552 18.1205 60.552V60.952C18.3855 60.952 18.6236 60.8576 18.8282 60.6785L18.5648 60.3775ZM18.1205 60.552C17.9458 60.552 17.803 60.4957 17.681 60.3818L17.408 60.6742C17.606 60.859 17.8472 60.952 18.1205 60.952V60.552ZM17.6907 60.3915C17.5768 60.2695 17.5205 60.1267 17.5205 59.952H17.1205C17.1205 60.2253 17.2135 60.4665 17.3983 60.6645L17.6907 60.3915ZM22.3859 70V70.2H22.5859V70H22.3859ZM21.2659 70H21.0659V70.2H21.2659V70ZM21.2659 58.16V57.96H21.0659V58.16H21.2659ZM22.3859 58.16H22.5859V57.96H22.3859V58.16ZM22.3859 69.8H21.2659V70.2H22.3859V69.8ZM21.4659 70V58.16H21.0659V70H21.4659ZM21.2659 58.36H22.3859V57.96H21.2659V58.36ZM22.1859 58.16V70H22.5859V58.16H22.1859ZM26.1984 70V70.2H26.3984V70H26.1984ZM25.0784 70H24.8784V70.2H25.0784V70ZM25.0784 58.16V57.96H24.8784V58.16H25.0784ZM26.1984 58.16H26.3984V57.96H26.1984V58.16ZM26.1984 69.8H25.0784V70.2H26.1984V69.8ZM25.2784 70V58.16H24.8784V70H25.2784ZM25.0784 58.36H26.1984V57.96H25.0784V58.36ZM25.9984 58.16V70H26.3984V58.16H25.9984ZM33.4669 70L33.2678 70.0194L33.2854 70.2H33.4669V70ZM33.3389 68.688L33.5379 68.6686L33.5203 68.488H33.3389V68.688ZM33.2749 68.688V68.488H33.1646L33.1058 68.5812L33.2749 68.688ZM32.7629 69.264L32.6333 69.1116L32.7629 69.264ZM32.0429 69.744L31.9506 69.5665L31.9476 69.5681L32.0429 69.744ZM31.1949 70.064L31.1479 69.8694L31.1399 69.8717L31.1949 70.064ZM28.7149 69.584L28.5622 69.7132L28.5639 69.7151L28.7149 69.584ZM28.6509 66.576L28.4987 66.4462L28.6509 66.576ZM29.7869 65.76L29.7118 65.5746L29.7869 65.76ZM31.1949 65.408L31.1737 65.2091L31.1733 65.2092L31.1949 65.408ZM33.2269 65.328V65.528H33.4269V65.328H33.2269ZM33.0509 64.208L32.8719 64.2975L32.8756 64.3044L33.0509 64.208ZM32.5709 63.664L32.6856 63.5L32.6795 63.4961L32.5709 63.664ZM31.9789 63.424L31.9279 63.6178L31.9397 63.6201L31.9789 63.424ZM29.9789 63.52L29.9139 63.3309L29.9789 63.52ZM28.9869 63.984L28.7936 64.0355L28.8621 64.2921L29.0898 64.1555L28.9869 63.984ZM28.7309 63.024L28.6303 62.8512L28.4983 62.928L28.5376 63.0755L28.7309 63.024ZM32.4109 62.512L32.3694 62.7077L32.3751 62.7088L32.4109 62.512ZM33.3389 62.864L33.2311 63.0325L33.2334 63.0339L33.3389 62.864ZM34.0749 63.68L33.8971 63.7716L34.0749 63.68ZM34.3469 70V70.2H34.5469V70H34.3469ZM32.0269 68.832L31.9285 68.6579L32.0269 68.832ZM33.2269 67.632L33.399 67.7339L33.4269 67.6867V67.632H33.2269ZM33.2269 66.144H33.4269V65.944H33.2269V66.144ZM31.7709 66.192L31.7855 66.3915L31.7709 66.192ZM30.5709 66.432L30.5043 66.2434L30.5025 66.244L30.5709 66.432ZM29.7069 66.992L29.8516 67.1301L29.8546 67.1269L29.7069 66.992ZM29.7069 68.928L29.5653 69.0696L29.5723 69.076L29.7069 68.928ZM33.6659 69.9806L33.5379 68.6686L33.1398 68.7074L33.2678 70.0194L33.6659 69.9806ZM33.3389 68.488H33.2749V68.888H33.3389V68.488ZM33.1058 68.5812C32.9902 68.7642 32.8338 68.9412 32.6333 69.1116L32.8924 69.4164C33.1186 69.2241 33.3035 69.0172 33.444 68.7948L33.1058 68.5812ZM32.6333 69.1116C32.4323 69.2825 32.2049 69.4343 31.9506 69.5666L32.1351 69.9214C32.4142 69.7764 32.6668 69.6081 32.8924 69.4164L32.6333 69.1116ZM31.9476 69.5681C31.7082 69.6978 31.442 69.7986 31.1479 69.8696L31.2418 70.2584C31.5664 70.1801 31.8656 70.0675 32.1381 69.9199L31.9476 69.5681ZM31.1399 69.8717C30.8584 69.9521 30.5782 69.992 30.2989 69.992V70.392C30.6169 70.392 30.934 70.3465 31.2498 70.2563L31.1399 69.8717ZM30.2989 69.992C29.6336 69.992 29.1689 69.8018 28.8659 69.4529L28.5639 69.7151C28.9648 70.1769 29.5561 70.392 30.2989 70.392V69.992ZM28.8676 69.4548C28.5502 69.0798 28.3869 68.6102 28.3869 68.032H27.9869C27.9869 68.6912 28.1755 69.2562 28.5622 69.7132L28.8676 69.4548ZM28.3869 68.032C28.3869 67.4581 28.5323 67.0232 28.803 66.7058L28.4987 66.4462C28.1508 66.8541 27.9869 67.3899 27.9869 68.032H28.3869ZM28.803 66.7058C29.0912 66.3679 29.4433 66.1148 29.8619 65.9454L29.7118 65.5746C29.2345 65.7678 28.8292 66.0587 28.4987 66.4462L28.803 66.7058ZM29.8619 65.9454C30.2924 65.7711 30.7438 65.6582 31.2165 65.6068L31.1733 65.2092C30.6646 65.2645 30.1773 65.3862 29.7118 65.5746L29.8619 65.9454ZM31.216 65.6069C31.7126 65.5541 32.1426 65.528 32.5069 65.528V65.128C32.1245 65.128 31.6798 65.1553 31.1737 65.2091L31.216 65.6069ZM32.5069 65.528H33.2269V65.128H32.5069V65.528ZM33.4269 65.328V65.136H33.0269V65.328H33.4269ZM33.4269 65.136C33.4269 64.7168 33.3671 64.368 33.2261 64.1116L32.8756 64.3044C32.9693 64.4747 33.0269 64.7446 33.0269 65.136H33.4269ZM33.2298 64.1186C33.1069 63.8728 32.9236 63.6668 32.6856 63.5002L32.4562 63.8278C32.6448 63.9599 32.7815 64.1165 32.872 64.2974L33.2298 64.1186ZM32.6795 63.4961C32.4769 63.365 32.256 63.2755 32.0181 63.2279L31.9397 63.6201C32.1285 63.6579 32.3022 63.7284 32.4622 63.8319L32.6795 63.4961ZM32.0298 63.2306C31.8034 63.171 31.5121 63.144 31.1629 63.144V63.544C31.4963 63.544 31.749 63.5703 31.928 63.6174L32.0298 63.2306ZM31.1629 63.144C30.6979 63.144 30.2805 63.2048 29.9139 63.3309L30.0439 63.7091C30.36 63.6005 30.7319 63.544 31.1629 63.544V63.144ZM29.9139 63.3309C29.5589 63.4529 29.2155 63.6136 28.884 63.8125L29.0898 64.1555C29.3982 63.9704 29.7162 63.8218 30.0439 63.7091L29.9139 63.3309ZM29.1801 63.9325L28.9241 62.9725L28.5376 63.0755L28.7936 64.0355L29.1801 63.9325ZM28.8315 63.1968C29.51 62.8019 30.3272 62.6 31.2909 62.6V62.2C30.2706 62.2 29.3811 62.4141 28.6303 62.8512L28.8315 63.1968ZM31.2909 62.6C31.6729 62.6 32.0323 62.6361 32.3694 62.7076L32.4524 62.3164C32.0855 62.2385 31.6982 62.2 31.2909 62.2V62.6ZM32.3751 62.7088C32.7048 62.7687 32.989 62.8775 33.2311 63.0325L33.4467 62.6955C33.1554 62.5091 32.821 62.3833 32.4467 62.3152L32.3751 62.7088ZM33.2334 63.0339C33.5093 63.2052 33.7308 63.4489 33.8971 63.7716L34.2527 63.5884C34.0563 63.2071 33.7871 62.9068 33.4443 62.6941L33.2334 63.0339ZM33.8971 63.7716C34.0599 64.0877 34.1469 64.4914 34.1469 64.992H34.5469C34.5469 64.4473 34.4525 63.9763 34.2527 63.5884L33.8971 63.7716ZM34.1469 64.992V70H34.5469V64.992H34.1469ZM34.3469 69.8H33.4669V70.2H34.3469V69.8ZM30.6349 69.448C31.1153 69.448 31.6131 69.2956 32.1253 69.0061L31.9285 68.6579C31.4594 68.923 31.0292 69.048 30.6349 69.048V69.448ZM32.1253 69.0061C32.6488 68.7102 33.0733 68.2842 33.399 67.7339L33.0548 67.5301C32.7618 68.0251 32.3863 68.3991 31.9285 68.6579L32.1253 69.0061ZM33.4269 67.632V66.144H33.0269V67.632H33.4269ZM33.2269 65.944H33.0829V66.344H33.2269V65.944ZM33.0829 65.944C32.6407 65.944 32.1985 65.9602 31.7563 65.9925L31.7855 66.3915C32.218 66.3598 32.6504 66.344 33.0829 66.344V65.944ZM31.7563 65.9925C31.3036 66.0257 30.8859 66.1087 30.5043 66.2434L30.6374 66.6206C30.9812 66.4993 31.3634 66.4223 31.7855 66.3915L31.7563 65.9925ZM30.5025 66.244C30.1241 66.3817 29.8076 66.5851 29.5592 66.8571L29.8546 67.1269C30.0542 66.9083 30.3137 66.7383 30.6392 66.62L30.5025 66.244ZM29.5622 66.8539C29.2935 67.1354 29.1709 67.5157 29.1709 67.968H29.5709C29.5709 67.5883 29.6723 67.3179 29.8515 67.1301L29.5622 66.8539ZM29.1709 67.968C29.1709 68.4198 29.2933 68.7973 29.5655 69.0694L29.8483 68.7866C29.6725 68.6107 29.5709 68.3482 29.5709 67.968H29.1709ZM29.5723 69.076C29.8512 69.3295 30.2122 69.448 30.6349 69.448V69.048C30.2896 69.048 30.0318 68.9531 29.8414 68.78L29.5723 69.076ZM37.8036 63.584L37.9295 63.7395L37.9303 63.7388L37.8036 63.584ZM37.5156 64.672L37.3227 64.7246L37.5156 64.672ZM37.6916 65.008L37.5354 65.1329L37.5424 65.1416L37.5502 65.1494L37.6916 65.008ZM38.0596 65.296L37.9515 65.4642L37.9583 65.4686L37.9655 65.4725L38.0596 65.296ZM38.6836 65.504L38.7276 65.3089L38.7244 65.3082L38.6836 65.504ZM39.8196 65.76L39.7757 65.9551L39.7777 65.9556L39.8196 65.76ZM40.8916 66.16L40.7837 66.3286L40.7917 66.3332L40.8916 66.16ZM41.5316 66.688L41.6895 66.5652L41.5316 66.688ZM41.8196 67.28L41.6235 67.3213L41.6269 67.3335L41.8196 67.28ZM41.6916 68.752L41.5113 68.6652L41.5089 68.6708L41.6916 68.752ZM41.1156 69.504L40.9876 69.3503L40.9844 69.3531L41.1156 69.504ZM40.2036 70L40.142 69.8096L40.1371 69.8114L40.2036 70ZM37.4196 69.952L37.3526 70.1405L37.3564 70.1417L37.4196 69.952ZM36.2676 69.392L36.0749 69.3386L36.0373 69.4745L36.1525 69.5556L36.2676 69.392ZM36.5556 68.352L36.6908 68.2046L36.45 67.9839L36.3629 68.2986L36.5556 68.352ZM37.8356 69.12L37.9002 68.9307L37.8356 69.12ZM40.3156 68.976L40.4513 69.123L40.4542 69.1202L40.3156 68.976ZM40.7156 67.824L40.5163 67.8406L40.5164 67.8421L40.7156 67.824ZM40.5876 67.44L40.7604 67.3392L40.5876 67.44ZM40.2516 67.088L40.1279 67.2454L40.1354 67.2507L40.2516 67.088ZM39.6116 66.816L39.5631 67.0101L39.5667 67.0109L39.6116 66.816ZM38.0756 66.432L38.1241 66.238L38.1227 66.2376L38.0756 66.432ZM37.2116 66.096L37.3169 65.9259V65.9259L37.2116 66.096ZM36.6836 65.648L36.5235 65.7681L36.5275 65.7729L36.6836 65.648ZM36.4116 65.12L36.2189 65.1735L36.2198 65.1764L36.4116 65.12ZM37.0516 62.992L37.1766 63.1482L37.177 63.1478L37.0516 62.992ZM40.3476 62.576L40.3001 62.7703L40.3042 62.7712L40.3476 62.576ZM41.5636 63.056L41.7543 63.1164L41.8004 62.9708L41.6721 62.8879L41.5636 63.056ZM41.2596 64.016L41.1301 64.1684L41.3594 64.3633L41.4503 64.0764L41.2596 64.016ZM40.2996 63.52L40.2321 63.7082L40.2336 63.7088L40.2996 63.52ZM38.9236 63.096C38.3945 63.096 37.9648 63.1937 37.677 63.4292L37.9303 63.7388C38.1118 63.5903 38.4287 63.496 38.9236 63.496V63.096ZM37.6778 63.4286C37.4013 63.6524 37.2676 63.9632 37.2676 64.336H37.6676C37.6676 64.0688 37.7579 63.8783 37.9295 63.7394L37.6778 63.4286ZM37.2676 64.336C37.2676 64.4627 37.2866 64.5925 37.3227 64.7246L37.7086 64.6194C37.6806 64.5168 37.6676 64.4226 37.6676 64.336H37.2676ZM37.3227 64.7246C37.3627 64.8714 37.4352 65.0076 37.5354 65.1329L37.8478 64.8831C37.7774 64.7951 37.7326 64.7073 37.7086 64.6194L37.3227 64.7246ZM37.5502 65.1494C37.6588 65.2581 37.7936 65.3627 37.9515 65.4642L38.1678 65.1278C38.027 65.0373 37.9164 64.9499 37.833 64.8666L37.5502 65.1494ZM37.9655 65.4725C38.1479 65.5697 38.3757 65.6441 38.6428 65.6998L38.7244 65.3082C38.4796 65.2572 38.2914 65.1929 38.1537 65.1195L37.9655 65.4725ZM38.6397 65.6991L39.7757 65.9551L39.8636 65.5649L38.7276 65.3089L38.6397 65.6991ZM39.7777 65.9556C40.2119 66.0486 40.5442 66.1751 40.7838 66.3285L40.9994 65.9915C40.7057 65.8036 40.3234 65.6634 39.8615 65.5644L39.7777 65.9556ZM40.7917 66.3332C41.0533 66.4842 41.2444 66.6445 41.3738 66.8108L41.6895 66.5652C41.5201 66.3475 41.2846 66.1558 40.9916 65.9868L40.7917 66.3332ZM41.3738 66.8108C41.5077 66.983 41.5885 67.153 41.6239 67.3212L42.0153 67.2388C41.9654 67.0017 41.8542 66.777 41.6895 66.5652L41.3738 66.8108ZM41.6269 67.3335C41.6762 67.5109 41.6996 67.6742 41.6996 67.824H42.0996C42.0996 67.6325 42.0697 67.4331 42.0123 67.2265L41.6269 67.3335ZM41.6996 67.824C41.6996 68.1257 41.6366 68.4052 41.5114 68.6652L41.8718 68.8388C42.024 68.5228 42.0996 68.1836 42.0996 67.824H41.6996ZM41.5089 68.6708C41.394 68.9292 41.2214 69.1555 40.9876 69.3504L41.2437 69.6576C41.5218 69.4258 41.7332 69.1508 41.8744 68.8332L41.5089 68.6708ZM40.9844 69.3531C40.7626 69.546 40.4835 69.6993 40.1421 69.8097L40.2652 70.1903C40.6491 70.0661 40.978 69.8887 41.2469 69.6549L40.9844 69.3531ZM40.1371 69.8114C39.799 69.9307 39.4166 69.992 38.9876 69.992V70.392C39.4546 70.392 39.8829 70.3253 40.2702 70.1886L40.1371 69.8114ZM38.9876 69.992C38.4413 69.992 37.9402 69.9147 37.4829 69.7623L37.3564 70.1417C37.859 70.3093 38.4033 70.392 38.9876 70.392V69.992ZM37.4866 69.7636C37.0168 69.5965 36.6509 69.4172 36.3827 69.2284L36.1525 69.5556C36.4603 69.7722 36.8624 69.9662 37.3526 70.1404L37.4866 69.7636ZM36.4604 69.4454L36.7484 68.4054L36.3629 68.2986L36.0749 69.3386L36.4604 69.4454ZM36.4205 68.4994C36.8238 68.8692 37.2743 69.1399 37.7711 69.3093L37.9002 68.9307C37.4583 68.7801 37.0554 68.5388 36.6908 68.2046L36.4205 68.4994ZM37.7711 69.3093C38.2548 69.4742 38.6985 69.56 39.0996 69.56V69.16C38.7541 69.16 38.3551 69.0858 37.9002 68.9307L37.7711 69.3093ZM39.0996 69.56C39.6625 69.56 40.1242 69.4249 40.4513 69.123L40.18 68.829C39.9524 69.0391 39.6034 69.16 39.0996 69.16V69.56ZM40.4542 69.1202C40.7571 68.8289 40.9316 68.5028 40.9316 68.144H40.5316C40.5316 68.3612 40.4288 68.5897 40.177 68.8318L40.4542 69.1202ZM40.9316 68.144C40.9316 68.0408 40.9259 67.928 40.9148 67.8059L40.5164 67.8421C40.5267 67.9547 40.5316 68.0552 40.5316 68.144H40.9316ZM40.9149 67.8074C40.9014 67.6455 40.8478 67.489 40.7604 67.3392L40.4149 67.5408C40.4768 67.647 40.5085 67.7465 40.5163 67.8406L40.9149 67.8074ZM40.7604 67.3392C40.6685 67.1817 40.5349 67.0445 40.3679 66.9253L40.1354 67.2507C40.267 67.3448 40.3574 67.4423 40.4149 67.5408L40.7604 67.3392ZM40.3752 66.9307C40.1941 66.7885 39.9495 66.6887 39.6566 66.6211L39.5667 67.0109C39.8284 67.0713 40.0104 67.1529 40.1281 67.2453L40.3752 66.9307ZM39.6601 66.622L38.1241 66.238L38.0271 66.626L39.5631 67.01L39.6601 66.622ZM38.1227 66.2376C37.7842 66.1555 37.5176 66.0502 37.3169 65.9259L37.1064 66.2661C37.3537 66.4191 37.6631 66.5378 38.0285 66.6264L38.1227 66.2376ZM37.3169 65.9259C37.107 65.796 36.9501 65.661 36.8398 65.5231L36.5275 65.7729C36.6731 65.955 36.8682 66.1186 37.1064 66.2661L37.3169 65.9259ZM36.8436 65.528C36.7281 65.374 36.6493 65.2192 36.6035 65.0636L36.2198 65.1764C36.2806 65.3834 36.3831 65.5807 36.5236 65.768L36.8436 65.528ZM36.6043 65.0665C36.5557 64.8912 36.5316 64.7172 36.5316 64.544H36.1316C36.1316 64.7548 36.1609 64.9648 36.2189 65.1735L36.6043 65.0665ZM36.5316 64.544C36.5316 63.95 36.7471 63.4917 37.1766 63.1482L36.9267 62.8358C36.3961 63.2603 36.1316 63.8367 36.1316 64.544H36.5316ZM37.177 63.1478C37.623 62.7891 38.2253 62.6 39.0036 62.6V62.2C38.1606 62.2 37.4616 62.4056 36.9263 62.8362L37.177 63.1478ZM39.0036 62.6C39.401 62.6 39.8329 62.6561 40.3001 62.7703L40.3951 62.3817C39.9024 62.2613 39.4383 62.2 39.0036 62.2V62.6ZM40.3042 62.7712C40.7667 62.874 41.1487 63.0263 41.4552 63.2241L41.6721 62.8879C41.3172 62.659 40.8886 62.4913 40.391 62.3808L40.3042 62.7712ZM41.373 62.9956L41.069 63.9556L41.4503 64.0764L41.7543 63.1164L41.373 62.9956ZM41.3892 63.8636C41.1491 63.6596 40.8031 63.4843 40.3657 63.3312L40.2336 63.7088C40.6495 63.8544 40.9435 64.0098 41.1301 64.1684L41.3892 63.8636ZM40.3672 63.3318C39.9268 63.1737 39.4449 63.096 38.9236 63.096V63.496C39.405 63.496 39.8404 63.5677 40.2321 63.7082L40.3672 63.3318ZM48.5499 64.96V65.16H48.7499V64.96H48.5499ZM45.2059 64.96V64.76H45.0059V64.96H45.2059ZM45.2059 70V70.2H45.4059V70H45.2059ZM44.0059 70H43.8059V70.2H44.0059V70ZM44.0059 59.44V59.24H43.8059V59.44H44.0059ZM49.7179 59.44H49.9179V59.24H49.7179V59.44ZM49.7179 60.56V60.76H49.9179V60.56H49.7179ZM45.2059 60.56V60.36H45.0059V60.56H45.2059ZM45.2059 63.84H45.0059V64.04H45.2059V63.84ZM48.5499 63.84H48.7499V63.64H48.5499V63.84ZM48.5499 64.76H45.2059V65.16H48.5499V64.76ZM45.0059 64.96V70H45.4059V64.96H45.0059ZM45.2059 69.8H44.0059V70.2H45.2059V69.8ZM44.2059 70V59.44H43.8059V70H44.2059ZM44.0059 59.64H49.7179V59.24H44.0059V59.64ZM49.5179 59.44V60.56H49.9179V59.44H49.5179ZM49.7179 60.36H45.2059V60.76H49.7179V60.36ZM45.0059 60.56V63.84H45.4059V60.56H45.0059ZM45.2059 64.04H48.5499V63.64H45.2059V64.04ZM48.3499 63.84V64.96H48.7499V63.84H48.3499ZM51.8661 62.64H52.0661V62.44H51.8661V62.64ZM51.9781 68.336L51.7882 68.3993L51.7912 68.4072L51.9781 68.336ZM52.2981 68.88L52.1512 69.0157L52.1566 69.0215L52.1625 69.027L52.2981 68.88ZM52.7781 69.168L52.7114 69.357L52.7246 69.3607L52.7781 69.168ZM54.1861 69.136L54.2421 69.3281L54.2471 69.3265L54.1861 69.136ZM54.9221 68.768L54.8059 68.6053L54.9221 68.768ZM55.9141 67.36L56.1051 67.4193L56.1141 67.3903V67.36H55.9141ZM55.9141 62.64V62.44H55.7141V62.64H55.9141ZM57.0341 62.64H57.2341V62.44H57.0341V62.64ZM57.0341 70V70.2H57.2341V70H57.0341ZM56.1541 70L55.955 70.0185L55.9719 70.2H56.1541V70ZM56.0261 68.624L56.2253 68.6055L56.2084 68.424H56.0261V68.624ZM55.9621 68.624V68.424H55.8147L55.7711 68.5649L55.9621 68.624ZM55.0341 69.744L55.1398 69.9138L55.0341 69.744ZM52.2661 70.064L52.2112 70.2563L52.2129 70.2568L52.2661 70.064ZM51.4821 69.648L51.3479 69.7964L51.352 69.7999L51.4821 69.648ZM50.9381 68.864L50.7515 68.9363L50.7546 68.9435L50.9381 68.864ZM50.7461 62.64V62.44H50.5461V62.64H50.7461ZM51.6661 62.64V67.504H52.0661V62.64H51.6661ZM51.6661 67.504C51.6661 67.8482 51.7048 68.1485 51.7884 68.3992L52.1679 68.2728C52.1021 68.0755 52.0661 67.8211 52.0661 67.504H51.6661ZM51.7912 68.4072C51.8833 68.6489 52.0019 68.8539 52.1512 69.0157L52.4451 68.7443C52.3384 68.6287 52.2436 68.4711 52.165 68.2648L51.7912 68.4072ZM52.1625 69.027C52.3215 69.1737 52.5051 69.2837 52.7116 69.3566L52.8447 68.9794C52.6885 68.9243 52.5521 68.8423 52.4338 68.733L52.1625 69.027ZM52.7246 69.3607C52.936 69.4194 53.1622 69.448 53.4021 69.448V69.048C53.194 69.048 53.0042 69.0232 52.8317 68.9753L52.7246 69.3607ZM53.4021 69.448C53.6877 69.448 53.9679 69.408 54.2421 69.328L54.1301 68.944C53.8923 69.0134 53.6498 69.048 53.4021 69.048V69.448ZM54.2471 69.3265C54.5332 69.2349 54.7972 69.103 55.0384 68.9307L54.8059 68.6053C54.599 68.753 54.3724 68.8664 54.1252 68.9455L54.2471 69.3265ZM55.0384 68.9307C55.2808 68.7576 55.4933 68.5447 55.6759 68.2936L55.3524 68.0584C55.1937 68.2766 55.0115 68.4584 54.8059 68.6053L55.0384 68.9307ZM55.6759 68.2936C55.8608 68.0393 56.0034 67.7471 56.1051 67.4193L55.7231 67.3007C55.6329 67.5915 55.5088 67.8433 55.3524 68.0584L55.6759 68.2936ZM56.1141 67.36V62.64H55.7141V67.36H56.1141ZM55.9141 62.84H57.0341V62.44H55.9141V62.84ZM56.8341 62.64V70H57.2341V62.64H56.8341ZM57.0341 69.8H56.1541V70.2H57.0341V69.8ZM56.3533 69.9815L56.2253 68.6055L55.827 68.6425L55.955 70.0185L56.3533 69.9815ZM56.0261 68.424H55.9621V68.824H56.0261V68.424ZM55.7711 68.5649C55.6494 68.9579 55.3764 69.2955 54.9285 69.5742L55.1398 69.9138C55.6519 69.5952 55.9975 69.1861 56.1532 68.6831L55.7711 68.5649ZM54.9285 69.5742C54.4876 69.8485 53.9292 69.992 53.2421 69.992V70.392C53.9844 70.392 54.6207 70.2368 55.1398 69.9138L54.9285 69.5742ZM53.2421 69.992C52.9176 69.992 52.6103 69.9515 52.3193 69.8712L52.2129 70.2568C52.5407 70.3472 52.884 70.392 53.2421 70.392V69.992ZM52.3211 69.8717C52.0486 69.7938 51.8133 69.6684 51.6123 69.4961L51.352 69.7999C51.599 70.0116 51.8863 70.1635 52.2112 70.2563L52.3211 69.8717ZM51.6163 69.4997C51.4165 69.3189 51.2507 69.0823 51.1216 68.7845L50.7546 68.9435C50.9029 69.2857 51.0998 69.5718 51.3479 69.7963L51.6163 69.4997ZM51.1246 68.7918C51.0081 68.4907 50.9461 68.1115 50.9461 67.648H50.5461C50.5461 68.1445 50.6122 68.5759 50.7516 68.9362L51.1246 68.7918ZM50.9461 67.648V62.64H50.5461V67.648H50.9461ZM50.7461 62.84H51.8661V62.44H50.7461V62.84ZM64.6973 70H64.4973V70.2H64.6973V70ZM62.3613 63.472L62.3003 63.2815L62.298 63.2823L62.3613 63.472ZM61.6413 63.856L61.7576 64.0188L61.7625 64.0151L61.6413 63.856ZM61.0493 64.464L61.211 64.5817L61.2134 64.5782L61.0493 64.464ZM60.6493 65.28L60.4582 65.2207L60.4492 65.2497V65.28H60.6493ZM60.6493 70V70.2H60.8493V70H60.6493ZM59.5293 70H59.3293V70.2H59.5293V70ZM59.5293 62.64V62.44H59.3293V62.64H59.5293ZM60.4092 62.64L60.6084 62.6215L60.5915 62.44H60.4092V62.64ZM60.5373 64.016L60.3381 64.0345L60.355 64.216H60.5373V64.016ZM60.6012 64.016V64.216H60.7487L60.7923 64.0751L60.6012 64.016ZM61.5293 62.88L61.6376 63.0481L61.6402 63.0464L61.5293 62.88ZM64.2812 62.544L64.22 62.7346L64.2281 62.7368L64.2812 62.544ZM65.0813 62.976L64.9471 63.1243V63.1243L65.0813 62.976ZM65.6093 63.776L65.4227 63.8482L65.4248 63.8533L65.6093 63.776ZM65.8173 70V70.2H66.0173V70H65.8173ZM64.8972 70V65.136H64.4973V70H64.8972ZM64.8972 65.136C64.8972 64.4732 64.7492 63.9484 64.404 63.6159L64.1265 63.9041C64.3573 64.1263 64.4973 64.5188 64.4973 65.136H64.8972ZM64.404 63.6159C64.0741 63.2983 63.6542 63.144 63.1613 63.144V63.544C63.5643 63.544 63.8804 63.6671 64.1265 63.9041L64.404 63.6159ZM63.1613 63.144C62.8729 63.144 62.5857 63.1902 62.3003 63.2815L62.4222 63.6625C62.6702 63.5831 62.9163 63.544 63.1613 63.544V63.144ZM62.298 63.2823C62.0202 63.3749 61.7608 63.5135 61.52 63.6969L61.7625 64.0151C61.9697 63.8572 62.1903 63.7398 62.4245 63.6617L62.298 63.2823ZM61.525 63.6933C61.2808 63.8677 61.0677 64.0873 60.8851 64.3498L61.2134 64.5782C61.3721 64.3501 61.5537 64.1643 61.7575 64.0187L61.525 63.6933ZM60.8875 64.3464C60.7025 64.6007 60.56 64.8929 60.4582 65.2207L60.8403 65.3393C60.9305 65.0485 61.0546 64.7967 61.211 64.5816L60.8875 64.3464ZM60.4492 65.28V70H60.8493V65.28H60.4492ZM60.6493 69.8H59.5293V70.2H60.6493V69.8ZM59.7293 70V62.64H59.3293V70H59.7293ZM59.5293 62.84H60.4092V62.44H59.5293V62.84ZM60.2101 62.6585L60.3381 64.0345L60.7364 63.9975L60.6084 62.6215L60.2101 62.6585ZM60.5373 64.216H60.6012V63.816H60.5373V64.216ZM60.7923 64.0751C60.9142 63.6813 61.1882 63.3377 61.6376 63.0481L61.4209 62.7119C60.9103 63.0409 60.5656 63.4547 60.4102 63.9569L60.7923 64.0751ZM61.6402 63.0464C62.0803 62.753 62.6366 62.6 63.3213 62.6V62.2C62.5766 62.2 61.9382 62.367 61.4183 62.7136L61.6402 63.0464ZM63.3213 62.6C63.6436 62.6 63.9428 62.6453 64.22 62.7344L64.3425 62.3536C64.0223 62.2507 63.6815 62.2 63.3213 62.2V62.6ZM64.2281 62.7368C64.5092 62.8144 64.7477 62.9439 64.9471 63.1243L65.2154 62.8277C64.9668 62.6028 64.672 62.4443 64.3344 62.3512L64.2281 62.7368ZM64.9471 63.1243C65.1442 63.3027 65.3041 63.5416 65.4227 63.8482L65.7958 63.7038C65.6584 63.3491 65.4663 63.0546 65.2154 62.8277L64.9471 63.1243ZM65.4248 63.8533C65.5504 64.1527 65.6172 64.5301 65.6172 64.992H66.0173C66.0173 64.4939 65.9455 64.0606 65.7937 63.6987L65.4248 63.8533ZM65.6172 64.992V70H66.0173V64.992H65.6172ZM65.8173 69.8H64.6973V70.2H65.8173V69.8Z" fill="black" mask="url(#path-1-outside-1_265_12)"/>
<rect x="9.23585" y="28.0754" width="23.1128" height="23.1132" fill="#ECE5FF"/>
<rect x="9.23585" y="28.0754" width="23.1128" height="23.1132" stroke="#BCA2FF" stroke-width="0.471694"/>
<path d="M16.4591 43.5V42.0623H18.1685C17.8138 41.8434 17.5119 41.5793 17.2629 41.2698C17.0214 40.9529 16.8365 40.5981 16.7082 40.2057C16.5874 39.8057 16.527 39.3717 16.527 38.9038C16.527 38.217 16.6818 37.6019 16.9912 37.0585C17.3082 36.5152 17.7534 36.085 18.327 35.768C18.9082 35.451 19.5912 35.2925 20.3761 35.2925C21.1685 35.2925 21.8515 35.451 22.4251 35.768C22.9987 36.085 23.4402 36.5189 23.7496 37.0699C24.0666 37.6133 24.2251 38.2283 24.2251 38.9151C24.2251 39.3831 24.1609 39.8132 24.0326 40.2057C23.9119 40.5981 23.727 40.9529 23.4779 41.2698C23.2289 41.5793 22.9232 41.8434 22.561 42.0623H24.293V43.5H20.9647V41.9604C21.3798 41.7642 21.693 41.5151 21.9044 41.2132C22.1232 40.9038 22.2704 40.5717 22.3459 40.217C22.4213 39.8548 22.4591 39.4963 22.4591 39.1415C22.4591 38.6359 22.3723 38.2057 22.1987 37.851C22.0327 37.4887 21.7949 37.2095 21.4855 37.0133C21.1761 36.817 20.8063 36.7189 20.3761 36.7189C19.9459 36.7189 19.5723 36.817 19.2553 37.0133C18.9459 37.2095 18.7082 37.4887 18.5421 37.851C18.3761 38.2133 18.2931 38.6472 18.2931 39.1529C18.2931 39.5076 18.3383 39.8623 18.4289 40.217C18.5195 40.5717 18.6704 40.9 18.8817 41.2019C19.1006 41.5038 19.3949 41.7566 19.7648 41.9604V43.5H16.4591Z" fill="#BCA2FF"/>
<rect x="35.6499" y="28.0754" width="23.1128" height="23.1132" fill="#E9FFD4"/>
<rect x="35.6499" y="28.0754" width="23.1128" height="23.1132" stroke="#A5E765" stroke-width="0.471694"/>
<path d="M44.1779 43.5V42.1528L46.6685 39.2661L44.2798 36.685V35.4171H50.0873V36.8208H47.427C47.276 36.8208 47.1062 36.817 46.9175 36.8095C46.7364 36.8019 46.5402 36.7869 46.3289 36.7642L48.3553 39.0057V39.4359L45.9892 42.1528C46.2534 42.1302 46.4949 42.1151 46.7138 42.1076C46.9402 42.0925 47.1817 42.0849 47.4383 42.0849H50.1892V43.5H44.1779Z" fill="#A5E765"/>
<rect x="0.325694" y="0.0718978" width="23.1129" height="23.1131" transform="matrix(0.842904 -0.538064 0.53805 0.842913 19.8601 13.8294)" fill="#E5F8FF"/>
<rect x="0.325694" y="0.0718978" width="23.1129" height="23.1131" transform="matrix(0.842904 -0.538064 0.53805 0.842913 19.8601 13.8294)" stroke="#4FC9FB" stroke-width="0.471694"/>
<path d="M38.3887 19.3613C37.5184 19.9605 36.7522 20.2529 36.0902 20.2384C35.4281 20.2239 34.9148 19.9519 34.5503 19.4225C34.3505 19.1324 34.2402 18.8556 34.2191 18.5922C34.1931 18.3215 34.2405 18.0643 34.3614 17.8207C34.4774 17.5699 34.652 17.3267 34.8854 17.0912L34.8479 17.0368C34.4399 17.1894 34.074 17.2169 33.7501 17.1191C33.4335 17.0164 33.1654 16.8055 32.9457 16.4864C32.716 16.1528 32.5997 15.8053 32.5967 15.4439C32.596 15.0702 32.7222 14.6946 32.9755 14.3172C33.2287 13.9397 33.62 13.5687 34.1494 13.2042C34.5265 12.9445 34.9348 12.7223 35.374 12.5374C35.8083 12.3453 36.2207 12.2377 36.6111 12.2148L36.9515 13.6641C36.5444 13.7093 36.1975 13.7878 35.911 13.8995C35.6267 13.999 35.3541 14.1387 35.093 14.3184C34.7666 14.5431 34.5673 14.7659 34.4949 14.9868C34.4175 15.2005 34.4512 15.4124 34.596 15.6228C34.7408 15.8331 34.9218 15.9329 35.139 15.9224C35.3584 15.8995 35.6241 15.7808 35.9359 15.566L36.8171 14.9594L37.6185 16.1233L36.7482 16.7225C36.4799 16.9073 36.2834 17.08 36.1588 17.2406C36.0293 17.394 35.9631 17.5464 35.9605 17.6978C35.9529 17.8421 36.0015 17.9903 36.1064 18.1426C36.2712 18.3819 36.4889 18.4886 36.7596 18.4625C37.0376 18.4315 37.3687 18.2837 37.7531 18.019C38.0867 17.7893 38.3591 17.5483 38.5702 17.2961C38.7836 17.0315 38.9777 16.7001 39.1525 16.3018L40.0288 17.5746C39.8726 17.9067 39.6708 18.2113 39.4234 18.4886C39.1759 18.7658 38.8311 19.0567 38.3887 19.3613Z" fill="#4FC9FB"/>
</svg>
